<?xml version="1.0" ?><!DOCTYPE svg  PUBLIC '-//W3C//DTD SVG 1.1//EN'  'http://www.w3.org/Graphics/SVG/1.1/DTD/svg11.dtd'><svg enable-background="new 0 0 24 24" height="24px" id="Layer_1" version="1.1" viewBox="0 0 24 24" width="24px" xml:space="preserve" xmlns="http://www.w3.org/2000/svg" xmlns:xlink="http://www.w3.org/1999/xlink"><g><path d="M17.7,0.5H6.3c-3.2,0-5.8,2.6-5.8,5.8v11.3c0,3.2,2.6,5.8,5.8,5.8h11.3c3.2,0,5.8-2.6,5.8-5.8V6.3   C23.5,3.1,20.9,0.5,17.7,0.5z M12,18.3c-3.5,0-6.3-2.8-6.3-6.3S8.5,5.7,12,5.7s6.3,2.8,6.3,6.3S15.5,18.3,12,18.3z M18.6,6.3   c-0.5,0-0.9-0.4-0.9-0.9s0.4-0.9,0.9-0.9s0.9,0.4,0.9,0.9S19.1,6.3,18.6,6.3z"/></g></svg>